HIERARCHY
ROOT joint_Root
{
	OFFSET 0.0 0.0 0.0
	CHANNELS 6 Xposition Yposition Zposition Zrotation Xrotation Yrotation 
	JOINT Hips
	{
		OFFSET -0.726466 93.3139 -2.00062
		CHANNELS 6 Xposition Yposition Zposition Zrotation Xrotation Yrotation 
		JOINT Spine
		{
			OFFSET 15.7357 0.0 0.0
			CHANNELS 6 Xposition Yposition Zposition Zrotation Xrotation Yrotation 
			JOINT Chest
			{
				OFFSET 8.98455 -0.406207 0.0
				CHANNELS 6 Xposition Yposition Zposition Zrotation Xrotation Yrotation 
				JOINT Neck
				{
					OFFSET 16.3773 0.0 0.0
					CHANNELS 6 Xposition Yposition Zposition Zrotation Xrotation Yrotation 
					JOINT Head
					{
						OFFSET 6.45672 0.0 0.0
						CHANNELS 6 Xposition Yposition Zposition Zrotation Xrotation Yrotation 
						End Site
						{
							OFFSET 0.0 0.0 0.0
						}
					}
				}
				JOINT Shoulder_L
				{
					OFFSET 12.9942 -0.242716 4.98039
					CHANNELS 6 Xposition Yposition Zposition Zrotation Xrotation Yrotation 
					JOINT UpperArm_L
					{
						OFFSET 5.34809 0.0 0.0
						CHANNELS 6 Xposition Yposition Zposition Zrotation Xrotation Yrotation 
						JOINT LowerArm_L
						{
							OFFSET 24.3286 1.87007e-05 0.0
							CHANNELS 6 Xposition Yposition Zposition Zrotation Xrotation Yrotation 
							JOINT Hand_L
							{
								OFFSET 22.2916 0.0 0.0
								CHANNELS 6 Xposition Yposition Zposition Zrotation Xrotation Yrotation 
								End Site
								{
									OFFSET 0.0 0.0 0.0
								}
							}
						}
					}
				}
				JOINT Shoulder_R
				{
					OFFSET 12.9945 -0.242716 -4.98039
					CHANNELS 6 Xposition Yposition Zposition Zrotation Xrotation Yrotation 
					JOINT UpperArm_R
					{
						OFFSET -5.34813 0.0 0.0
						CHANNELS 6 Xposition Yposition Zposition Zrotation Xrotation Yrotation 
						JOINT LowerArm_R
						{
							OFFSET -24.3289 0.000322201 0.0
							CHANNELS 6 Xposition Yposition Zposition Zrotation Xrotation Yrotation 
							JOINT Hand_R
							{
								OFFSET -22.2915 -0.000108084 0.0
								CHANNELS 6 Xposition Yposition Zposition Zrotation Xrotation Yrotation 
								End Site
								{
									OFFSET 0.0 0.0 0.0
								}
							}
						}
					}
				}
			}
		}
		JOINT UpperLeg_L
		{
			OFFSET -2.19248 -6.46944 0.0
			CHANNELS 6 Xposition Yposition Zposition Zrotation Xrotation Yrotation 
			JOINT LowerLeg_L
			{
				OFFSET 39.0811 0.0 -1.23785e-05
				CHANNELS 6 Xposition Yposition Zposition Zrotation Xrotation Yrotation 
				JOINT Foot_L
				{
					OFFSET 40.9854 0.0 -1.26872e-05
					CHANNELS 6 Xposition Yposition Zposition Zrotation Xrotation Yrotation 
					JOINT Toes_L
					{
						OFFSET 11.7543 0.0 0.0
						CHANNELS 6 Xposition Yposition Zposition Zrotation Xrotation Yrotation 
						End Site
						{
							OFFSET 0.0 0.0 0.0
						}
					}
				}
			}
		}
		JOINT UpperLeg_R
		{
			OFFSET -2.19251 6.46944 0.0
			CHANNELS 6 Xposition Yposition Zposition Zrotation Xrotation Yrotation 
			JOINT LowerLeg_R
			{
				OFFSET -39.0811 -0.00228153 -0.0401928
				CHANNELS 6 Xposition Yposition Zposition Zrotation Xrotation Yrotation 
				JOINT Foot_R
				{
					OFFSET -40.9854 0.0 0.0
					CHANNELS 6 Xposition Yposition Zposition Zrotation Xrotation Yrotation 
					JOINT Toes_R
					{
						OFFSET -11.7543 0.0 0.0
						CHANNELS 6 Xposition Yposition Zposition Zrotation Xrotation Yrotation 
						End Site
						{
							OFFSET 0.0 0.0 0.0
						}
					}
				}
			}
		}
	}
}
MOTION
Frames:	5
Frame Time:	0.0333333
0.000000 0.000000 0.000000 0.000000 0.000000 -0.000000 -3.426460 83.365100 429.852000 -89.335800 2.497600 172.535000 15.735700 0.000005 -0.000001 95.999000 79.025500 -97.990900 8.984550 -0.406207 -0.000000 14.111100 2.157070 -4.252920 16.377300 -0.000001 -0.000001 2.731640 -3.101770 4.364900 6.456720 -0.000001 -0.000000 -6.219980 -5.176150 1.058000 12.994200 -0.242716 4.980390 -88.935100 -2.549890 -67.338300 5.348090 -0.000007 -0.000001 -66.019200 5.898170 -0.863510 24.328600 0.000019 0.000005 -6.424910 -4.410300 -55.671900 22.291600 -0.000001 0.000005 2.998470 5.624610 -12.937700 12.994500 -0.242716 -4.980390 90.094000 -0.242552 -68.785000 -5.348130 -0.000001 -0.000004 -56.578300 33.997400 -29.713400 -24.328900 0.000322 -0.000009 -3.710370 -3.882150 -43.774100 -22.291500 -0.000108 -0.000004 11.260900 5.643000 -14.378900 -2.192480 -6.469440 -0.000000 176.487000 -6.379010 -41.776100 39.081100 -0.000007 -0.000012 -0.386644 0.230506 59.198800 40.985400 -0.000006 -0.000013 -0.607980 -11.318400 -75.973100 11.754300 -0.000000 0.000003 -0.000084 -0.000884 -16.611600 -2.192510 6.469440 -0.000001 172.050000 4.684560 174.546000 -39.081100 -0.002282 -0.040193 0.254305 -0.068029 74.851200 -40.985400 0.000008 0.000006 2.819680 -5.224030 -39.722700 -11.754300 -0.000006 -0.000006 -0.029386 -0.214636 -25.364700
0.000000 0.000000 0.000000 0.000000 0.000000 -0.000000 -3.769080 81.535600 423.435000 -91.573000 0.745495 173.417000 15.735700 0.000005 -0.000001 92.252800 78.447000 -94.821900 8.984550 -0.406207 -0.000000 15.344900 0.726348 -5.240500 16.377300 -0.000001 -0.000001 1.416610 -3.958130 3.918500 6.456720 -0.000001 -0.000000 -6.138290 -4.998540 2.221370 12.994200 -0.242716 4.980390 -89.463300 -1.439740 -69.547800 5.348090 -0.000007 -0.000001 -63.563700 7.357110 -12.471300 24.328600 0.000019 0.000005 -6.191900 -4.308550 -55.299100 22.291600 -0.000001 0.000005 2.974720 5.629330 -13.288700 12.994500 -0.242716 -4.980390 89.498700 1.260510 -68.311600 -5.348130 -0.000001 -0.000004 -59.739700 34.599900 -21.481800 -24.328900 0.000322 -0.000009 -5.432020 -6.875900 -38.461600 -22.291500 -0.000108 -0.000004 10.569400 5.643670 -14.440300 -2.192480 -6.469440 -0.000000 174.277000 -6.853590 -38.065500 39.081100 -0.000007 -0.000012 -0.476377 0.233313 63.907100 40.985400 -0.000006 -0.000013 -0.874417 -9.437680 -83.552100 11.754300 -0.000000 0.000003 -0.000144 -0.001407 -16.631100 -2.192510 6.469440 -0.000001 170.952000 5.551830 165.095000 -39.081100 -0.002282 -0.040193 0.246770 -0.002661 89.393600 -40.985400 0.000008 0.000006 4.547620 -3.507690 -41.008100 -11.754300 -0.000006 -0.000006 -0.029470 -0.215024 -25.380800
0.000000 0.000000 0.000000 0.000000 0.000000 -0.000000 -3.536010 80.635600 417.060000 -90.482600 -1.850450 173.282000 15.735700 0.000005 -0.000001 87.886000 78.393900 -89.736200 8.984550 -0.406207 -0.000000 15.418700 -0.967654 -3.572700 16.377300 -0.000001 -0.000001 1.215500 -3.927240 3.400340 6.456720 -0.000001 -0.000000 -5.902510 -3.580710 2.341420 12.994200 -0.242716 4.980390 -89.053600 -2.791200 -71.251600 5.348090 -0.000007 -0.000001 -62.631800 8.235940 -21.415800 24.328600 0.000019 0.000005 -5.935260 -3.657290 -58.459200 22.291600 -0.000001 0.000005 2.062320 5.632850 -13.553600 12.994500 -0.242716 -4.980390 89.439700 1.346130 -67.396900 -5.348130 -0.000001 -0.000004 -62.621600 34.746800 -13.775600 -24.328900 0.000322 -0.000009 -2.595110 -3.769380 -34.563800 -22.291500 -0.000108 -0.000004 7.487020 5.638540 -13.984400 -2.192480 -6.469440 -0.000000 176.446000 -6.774730 -33.643300 39.081100 -0.000007 -0.000012 -0.490409 0.223036 65.545200 40.985400 -0.000006 -0.000013 -1.419740 -7.163810 -89.497900 11.754300 -0.000000 0.000003 -0.000191 -0.001781 -16.644800 -2.192510 6.469440 -0.000001 173.966000 7.958480 154.503000 -39.081100 -0.002282 -0.040193 0.257296 0.039629 98.888200 -40.985400 0.000008 0.000006 4.125840 -2.912070 -43.411500 -11.754300 -0.000006 -0.000006 -0.027739 -0.206909 -25.044400
0.000000 0.000000 0.000000 0.000000 0.000000 -0.000000 -3.052060 80.908000 410.356000 -89.133900 -5.061080 172.680000 15.735700 0.000005 -0.000001 81.403800 78.530900 -82.222100 8.984550 -0.406207 -0.000000 14.909300 -3.434980 -1.188410 16.377300 -0.000001 -0.000001 1.122540 -3.807260 2.652640 6.456720 -0.000001 -0.000000 -5.362710 -1.565550 2.265980 12.994200 -0.242716 4.980390 -88.583900 -4.416580 -72.201400 5.348090 -0.000007 -0.000001 -59.987800 9.444660 -27.872200 24.328600 0.000019 0.000005 -8.856490 -4.249200 -64.556300 22.291600 -0.000001 0.000005 2.498770 5.633480 -13.601100 12.994500 -0.242716 -4.980390 89.371800 1.392840 -65.723400 -5.348130 -0.000001 -0.000004 -62.763000 35.904000 -6.636170 -24.328900 0.000322 -0.000009 -0.773092 -1.048370 -36.313600 -22.291500 -0.000108 -0.000004 5.360750 5.631540 -13.447100 -2.192480 -6.469440 -0.000000 179.710000 -7.628760 -27.384900 39.081100 -0.000007 -0.000012 -0.461073 0.239609 62.541200 40.985400 -0.000006 -0.000013 -1.138020 -3.223130 -93.065200 11.754300 -0.000000 0.000003 -0.000212 -0.001945 -16.650800 -2.192510 6.469440 -0.000001 178.197000 11.399800 144.949000 -39.081100 -0.002282 -0.040193 0.233970 0.048823 101.973000 -40.985400 0.000008 0.000006 4.593720 -4.343690 -47.230400 -11.754300 -0.000006 -0.000006 -0.027645 -0.206462 -25.025900
0.000000 0.000000 0.000000 0.000000 0.000000 -0.000000 -2.434730 82.539700 402.954000 -86.554300 -8.080220 171.696000 15.735700 0.000005 -0.000001 75.120900 78.756400 -74.453400 8.984550 -0.406207 -0.000000 14.050600 -5.671060 2.035600 16.377300 -0.000001 -0.000001 1.213910 -3.610270 2.132300 6.456720 -0.000001 -0.000000 -4.930280 0.082885 1.899150 12.994200 -0.242716 4.980390 -88.248200 -5.665120 -72.785000 5.348090 -0.000007 -0.000001 -57.078300 9.445630 -31.830800 24.328600 0.000019 0.000005 -9.759940 -3.435700 -70.793600 22.291600 -0.000001 0.000005 2.670190 5.633430 -13.597500 12.994500 -0.242716 -4.980390 89.269400 1.510750 -64.182800 -5.348130 -0.000001 -0.000004 -61.943800 37.162600 0.107141 -24.328900 0.000322 -0.000009 -1.951120 -2.255500 -40.864300 -22.291500 -0.000108 -0.000004 4.288710 5.623970 -12.890400 -2.192480 -6.469440 -0.000000 -175.287000 -7.200070 -18.841000 39.081100 -0.000007 -0.000012 -0.418537 0.309355 53.531600 40.985400 -0.000006 -0.000013 -1.671520 -0.112060 -93.633200 11.754300 -0.000000 0.000003 -0.000128 -0.001271 -16.626000 -2.192510 6.469440 -0.000001 -175.865000 13.547400 137.715000 -39.081100 -0.002282 -0.040193 0.176681 0.024358 98.026800 -40.985400 0.000008 0.000006 4.599900 -6.153210 -52.561300 -11.754300 -0.000006 -0.000006 -0.024895 -0.193033 -24.470200
